<svg xmlns="http://www.w3.org/2000/svg" xml:space="preserve" width="64" height="64" viewBox="0 0 16.933 16.933"><path fill="green" d="M0 0h16.961v16.933H0z" style="fill:#a00"/><path d="M8.884 9.938 7.666 8.735l.014-.014A8.4 8.4 0 0 0 9.46 5.59h1.405v-.959H7.508v-.959h-.96v.96H3.194v.958h5.355a7.558 7.558 0 0 1-1.52 2.565 7.5 7.5 0 0 1-1.107-1.606h-.96c.35.781.83 1.52 1.43 2.186l-2.44 2.407.68.68 2.397-2.397 1.491 1.491.365-.978m2.699-2.43h-.96L8.468 13.26h.958l.537-1.439h2.278l.541 1.439h.96l-2.158-5.753m-1.256 3.356.776-2.076.777 2.076z" style="fill:#fff;stroke-width:.479422"/><path d="M11.467-17.084h13.991v.44H11.467zM11.467-17.966h13.991v.44H11.467z" style="fill:#a00;fill-opacity:1;stroke-width:.264578" transform="rotate(45.755 -17.444 -16.152)"/><path d="M11.467-17.525h13.991v.44H11.467z" style="fill:#fff;fill-opacity:1;stroke-width:.264578" transform="rotate(45.755 -17.444 -16.152)"/></svg>